# xmcd
#
# Track frame offsets: 
#        150
#        15675
#        30826
#        54526
#        76651
#        91201
#        113476
#        131701
#        151201
#        174226
#        189001
#        204226
#
# Disc length: 2941 seconds
#
# Revision: 0
# Processed by: cddbd v1.5.2PL0 Copyright (c) Steve Scherf et al.
# Submitted via: ExactAudioCopyFreeDBPlugin 1.0
#
DISCID=790b7b0c
DTITLE=Steve "Big Man" Clayton - I Like It Like That
DYEAR=2011
DGENRE=Blues
TTITLE0=I Like It Like That!
TTITLE1=Low Down Ways
TTITLE2=Satisfyin' Baby
TTITLE3=Heartache Blues
TTITLE4=BMC Boogie Woogie
TTITLE5=A Mighty Fine Thing
TTITLE6=Medicine Man
TTITLE7=Ride That Train
TTITLE8=I Feel Like Jivin'
TTITLE9=Someday My Luck Is Gonna Change
TTITLE10=Grooooovy Boogie
TTITLE11=Why Can't We Start Again
EXTD=
EXTT0=
EXTT1=
EXTT2=
EXTT3=
EXTT4=
EXTT5=
EXTT6=
EXTT7=
EXTT8=
EXTT9=
EXTT10=
EXTT11=
PLAYORDER=
